<?xml version="1.0" encoding="UTF-8"?>
<svg width="79px" height="71px" viewBox="0 0 79 71" version="1.1" xmlns="http://www.w3.org/2000/svg" xmlns:xlink="http://www.w3.org/1999/xlink">
    <!-- Generator: Sketch 51.3 (57544) - http://www.bohemiancoding.com/sketch -->
    <title>Video / Loader</title>
    <desc>Created with Sketch.</desc>
    <defs>
        <path d="M8.47434898,8.51347626 C3.23787367,13.7598902 0,21.0018222 0,29 C0,45.0162577 12.9837423,58 29,58 C45.0162577,58 58,45.0162577 58,29 C58,12.9837423 45.0162577,0 29,0" id="path-1"></path>
    </defs>
    <g id="Web_Revisions_11.02.2020" stroke="none" stroke-width="1" fill="none" fill-rule="evenodd">
        <g id="A-Project-Page-w/-stylised-text" transform="translate(-812.000000, -1516.000000)" fill-rule="nonzero">
            <g id="Video-/-Loader" transform="translate(827.000000, 1520.000000)">
                <path id="Oval-2-Copy" d="M-11.0107324,26.1601372 L10.594171,9.08740607 L6.56295886,7.43198262 L9.93414131,34.7611818 L14.8965291,34.1490484 L11.5253467,6.81984925 L10.9812281,2.40883787 L7.49413455,5.1644258 L-14.1107688,22.237157 L-11.0107324,26.1601372 Z M6.16174844,7.56380329 L-2.31222626,28.1992422 L-2.50210728,28.6616319 L-2.49959412,29.1614845 C-2.41246631,46.4906998 11.6632844,60.5 29,60.5 C46.3969696,60.5 60.5,46.3969696 60.5,29 C60.5,11.6030304 46.3969696,-2.5 29,-2.5 L29,2.5 C43.6355459,2.5 55.5,14.3644541 55.5,29 C55.5,43.6355459 43.6355459,55.5 29,55.5 C14.4152264,55.5 2.57363778,43.7143146 2.50034269,29.1363458 L2.31297482,30.0985881 L10.7869495,9.46314922 L6.16174844,7.56380329 Z"></path>
            </g>
        </g>
    </g>
</svg>