<?xml version="1.0" encoding="UTF-8"?>
<svg width="82px" height="71px" viewBox="0 0 82 71" version="1.1" xmlns="http://www.w3.org/2000/svg" xmlns:xlink="http://www.w3.org/1999/xlink">
    <!-- Generator: Sketch 51.3 (57544) - http://www.bohemiancoding.com/sketch -->
    <title>Oval 2 Copy</title>
    <desc>Created with Sketch.</desc>
    <defs>
        <path d="M815.989268,1546.16014 L837.594171,1529.08741 L833.562959,1527.43198 L836.934141,1554.76118 L841.896529,1554.14905 L838.525347,1526.81985 L837.981228,1522.40884 L834.494135,1525.16443 L812.889231,1542.23716 L815.989268,1546.16014 Z M833.161748,1527.5638 L824.687774,1548.19924 L824.497893,1548.66163 L824.500406,1549.16148 C824.587534,1566.4907 838.663284,1580.5 856,1580.5 C873.39697,1580.5 887.5,1566.39697 887.5,1549 C887.5,1531.60303 873.39697,1517.5 856,1517.5 L856,1522.5 C870.635546,1522.5 882.5,1534.36445 882.5,1549 C882.5,1563.63555 870.635546,1575.5 856,1575.5 C841.415226,1575.5 829.573638,1563.71431 829.500343,1549.13635 L829.312975,1550.09859 L837.78695,1529.46315 L833.161748,1527.5638 Z" id="path-1"></path>
        <filter x="-9.4%" y="-7.9%" width="118.8%" height="122.2%" filterUnits="objectBoundingBox" id="filter-2">
            <feOffset dx="0" dy="2" in="SourceAlpha" result="shadowOffsetOuter1"></feOffset>
            <feGaussianBlur stdDeviation="2" in="shadowOffsetOuter1" result="shadowBlurOuter1"></feGaussianBlur>
            <feColorMatrix values="0 0 0 0 0   0 0 0 0 0   0 0 0 0 0  0 0 0 0.5 0" type="matrix" in="shadowBlurOuter1"></feColorMatrix>
        </filter>
    </defs>
    <g id="Web_Revisions_11.02.2020" stroke="none" stroke-width="1" fill="none" fill-rule="evenodd">
        <g id="A-Project-Page-w/-stylised-text" transform="translate(-809.000000, -1516.000000)" fill-rule="nonzero">
            <g id="Oval-2-Copy">
                <use fill="black" fill-opacity="1" filter="url(#filter-2)" xlink:href="#path-1"></use>
                <use fill="#FFFFFF" xlink:href="#path-1"></use>
            </g>
        </g>
    </g>
</svg>